<?xml version="1.0" encoding="utf-8"?>
<svg xmlns="http://www.w3.org/2000/svg" version="1.1" width="500" height="500">
<title>Exemple</title>
<line x1="250.0" y1="250.0" x2="274.62018" y2="254.3412" stroke="red" />
<line x1="274.62018" y1="254.3412" x2="295.09897" y2="240.00179" stroke="red" />
<line x1="295.09897" y1="240.00179" x2="299.4402" y2="215.38159" stroke="red" />
<line x1="299.4402" y1="215.38159" x2="285.10077" y2="194.90279" stroke="red" />
<line x1="285.10077" y1="194.90279" x2="260.4806" y2="190.56158" stroke="red" />
<line x1="260.4806" y1="190.56158" x2="240.00179" y2="204.901" stroke="red" />
<line x1="240.00179" y1="204.901" x2="235.66058" y2="229.5212" stroke="red" />
<line x1="235.66058" y1="229.5212" x2="249.99998" y2="250.0" stroke="red" />
<line x1="249.99998" y1="250.0" x2="273.4923" y2="258.5505" stroke="red" />
<line x1="273.4923" y1="258.5505" x2="296.15" y2="247.98505" stroke="red" />
<line x1="296.15" y1="247.98505" x2="304.7005" y2="224.49274" stroke="red" />
<line x1="304.7005" y1="224.49274" x2="294.13504" y2="201.83504" stroke="red" />
<line x1="294.13504" y1="201.83504" x2="270.64273" y2="193.28453" stroke="red" />
<line x1="270.64273" y1="193.28453" x2="247.98503" y2="203.84998" stroke="red" />
<line x1="247.98503" y1="203.84998" x2="239.43452" y2="227.34229" stroke="red" />
<line x1="239.43452" y1="227.34229" x2="249.99998" y2="249.99998" stroke="red" />
<line x1="249.99998" y1="249.99998" x2="271.6506" y2="262.5" stroke="red" />
<line x1="271.6506" y1="262.5" x2="295.79877" y2="256.02954" stroke="red" />
<line x1="295.79877" y1="256.02954" x2="308.29877" y2="234.3789" stroke="red" />
<line x1="308.29877" y1="234.3789" x2="301.8283" y2="210.23076" stroke="red" />
<line x1="301.8283" y1="210.23076" x2="280.17767" y2="197.73076" stroke="red" />
<line x1="280.17767" y1="197.73076" x2="256.02954" y2="204.20123" stroke="red" />
<line x1="256.02954" y1="204.20123" x2="243.52956" y2="225.85187" stroke="red" />
<line x1="243.52956" y1="225.85187" x2="250.00005" y2="250.0" stroke="red" />
<line x1="250.00005" y1="250.0" x2="269.15115" y2="266.0697" stroke="red" />
<line x1="269.15115" y1="266.0697" x2="294.05603" y2="263.8908" stroke="red" />
<line x1="294.05603" y1="263.8908" x2="310.12573" y2="244.73972" stroke="red" />
<line x1="310.12573" y1="244.73972" x2="307.94687" y2="219.83484" stroke="red" />
<line x1="307.94687" y1="219.83484" x2="288.79578" y2="203.76514" stroke="red" />
<line x1="288.79578" y1="203.76514" x2="263.8909" y2="205.94403" stroke="red" />
<line x1="263.8909" y1="205.94403" x2="247.82121" y2="225.09514" stroke="red" />
<line x1="247.82121" y1="225.09514" x2="250.00012" y2="250.0" stroke="red" />
<line x1="250.00012" y1="250.0" x2="266.06982" y2="269.15112" stroke="red" />
<line x1="266.06982" y1="269.15112" x2="290.9747" y2="271.33002" stroke="red" />
<line x1="290.9747" y1="271.33002" x2="310.1258" y2="255.26031" stroke="red" />
<line x1="310.1258" y1="255.26031" x2="312.30472" y2="230.35545" stroke="red" />
<line x1="312.30472" y1="230.35545" x2="296.23505" y2="211.20433" stroke="red" />
<line x1="296.23505" y1="211.20433" x2="271.33017" y2="209.02542" stroke="red" />
<line x1="271.33017" y1="209.02542" x2="252.17906" y2="225.09511" stroke="red" />
<line x1="252.17906" y1="225.09511" x2="250.00017" y2="249.99997" stroke="red" />
<line x1="250.00017" y1="249.99997" x2="262.50015" y2="271.6506" stroke="red" />
<line x1="262.50015" y1="271.6506" x2="286.6483" y2="278.1211" stroke="red" />
<line x1="286.6483" y1="278.1211" x2="308.29892" y2="265.6211" stroke="red" />
<line x1="308.29892" y1="265.6211" x2="314.76944" y2="241.47296" stroke="red" />
<line x1="314.76944" y1="241.47296" x2="302.2694" y2="219.82234" stroke="red" />
<line x1="302.2694" y1="219.82234" x2="278.12128" y2="213.35185" stroke="red" />
<line x1="278.12128" y1="213.35185" x2="256.47067" y2="225.85188" stroke="red" />
<line x1="256.47067" y1="225.85188" x2="250.0002" y2="250.00003" stroke="red" />
<line x1="250.0002" y1="250.00003" x2="258.55072" y2="273.49234" stroke="red" />
<line x1="258.55072" y1="273.49234" x2="281.2084" y2="284.0578" stroke="red" />
<line x1="281.2084" y1="284.0578" x2="304.70074" y2="275.50735" stroke="red" />
<line x1="304.70074" y1="275.50735" x2="315.2662" y2="252.84966" stroke="red" />
<line x1="315.2662" y1="252.84966" x2="306.71573" y2="229.35733" stroke="red" />
<line x1="306.71573" y1="229.35733" x2="284.058" y2="218.7919" stroke="red" />
<line x1="284.058" y1="218.7919" x2="260.5657" y2="227.34239" stroke="red" />
<line x1="260.5657" y1="227.34239" x2="250.0002" y2="250.00006" stroke="red" />
<line x1="250.0002" y1="250.00006" x2="254.34138" y2="274.62027" stroke="red" />
<line x1="254.34138" y1="274.62027" x2="274.8202" y2="288.95966" stroke="red" />
<line x1="274.8202" y1="288.95966" x2="299.4404" y2="284.61847" stroke="red" />
<line x1="299.4404" y1="284.61847" x2="313.77985" y2="264.1397" stroke="red" />
<line x1="313.77985" y1="264.1397" x2="309.43863" y2="239.51952" stroke="red" />
<line x1="309.43863" y1="239.51952" x2="288.95984" y2="225.18008" stroke="red" />
<line x1="288.95984" y1="225.18008" x2="264.33966" y2="229.52132" stroke="red" />
<line x1="264.33966" y1="229.52132" x2="250.00024" y2="250.0001" stroke="red" />
<line x1="250.00024" y1="250.0001" x2="250.00026" y2="275.00012" stroke="red" />
<line x1="250.00026" y1="275.00012" x2="267.67792" y2="292.6778" stroke="red" />
<line x1="267.67792" y1="292.6778" x2="292.67792" y2="292.67776" stroke="red" />
<line x1="292.67792" y1="292.67776" x2="310.3556" y2="275.0001" stroke="red" />
<line x1="310.3556" y1="275.0001" x2="310.35562" y2="250.00009" stroke="red" />
<line x1="310.35562" y1="250.00009" x2="292.67795" y2="232.32243" stroke="red" />
<line x1="292.67795" y1="232.32243" x2="267.67795" y2="232.3224" stroke="red" />
<line x1="267.67795" y1="232.3224" x2="250.0003" y2="250.00009" stroke="red" />
<line x1="250.0003" y1="250.00009" x2="245.65907" y2="274.62027" stroke="red" />
<line x1="245.65907" y1="274.62027" x2="259.9985" y2="295.09906" stroke="red" />
<line x1="259.9985" y1="295.09906" x2="284.61868" y2="299.44028" stroke="red" />
<line x1="284.61868" y1="299.44028" x2="305.09747" y2="285.10083" stroke="red" />
<line x1="305.09747" y1="285.10083" x2="309.4387" y2="260.48065" stroke="red" />
<line x1="309.4387" y1="260.48065" x2="295.0993" y2="240.00183" stroke="red" />
<line x1="295.0993" y1="240.00183" x2="270.4791" y2="235.66064" stroke="red" />
<line x1="270.4791" y1="235.66064" x2="250.00027" y2="250.00003" stroke="red" />
<line x1="250.00027" y1="250.00003" x2="241.44977" y2="273.49234" stroke="red" />
<line x1="241.44977" y1="273.49234" x2="252.0152" y2="296.15005" stroke="red" />
<line x1="252.0152" y1="296.15005" x2="275.5075" y2="304.70053" stroke="red" />
<line x1="275.5075" y1="304.70053" x2="298.16522" y2="294.1351" stroke="red" />
<line x1="298.16522" y1="294.1351" x2="306.7158" y2="270.6428" stroke="red" />
<line x1="306.7158" y1="270.6428" x2="296.15033" y2="247.98509" stroke="red" />
<line x1="296.15033" y1="247.98509" x2="272.658" y2="239.43463" stroke="red" />
<line x1="272.658" y1="239.43463" x2="250.00026" y2="250.00002" stroke="red" />
<line x1="250.00026" y1="250.00002" x2="237.5003" y2="271.65067" stroke="red" />
<line x1="237.5003" y1="271.65067" x2="243.9707" y2="295.79883" stroke="red" />
<line x1="243.9707" y1="295.79883" x2="265.6213" y2="308.29886" stroke="red" />
<line x1="265.6213" y1="308.29886" x2="289.76944" y2="301.82837" stroke="red" />
<line x1="289.76944" y1="301.82837" x2="302.26938" y2="280.1777" stroke="red" />
<line x1="302.26938" y1="280.1777" x2="295.79895" y2="256.02954" stroke="red" />
<line x1="295.79895" y1="256.02954" x2="274.14832" y2="243.52954" stroke="red" />
<line x1="274.14832" y1="243.52954" x2="250.00018" y2="250.00008" stroke="red" />
<line x1="250.00018" y1="250.00008" x2="233.93048" y2="269.15118" stroke="red" />
<line x1="233.93048" y1="269.15118" x2="236.10942" y2="294.05606" stroke="red" />
<line x1="236.10942" y1="294.05606" x2="255.26048" y2="310.12582" stroke="red" />
<line x1="255.26048" y1="310.12582" x2="280.16534" y2="307.94696" stroke="red" />
<line x1="280.16534" y1="307.94696" x2="296.23502" y2="288.79584" stroke="red" />
<line x1="296.23502" y1="288.79584" x2="294.05603" y2="263.891" stroke="red" />
<line x1="294.05603" y1="263.891" x2="274.90497" y2="247.82126" stroke="red" />
<line x1="274.90497" y1="247.82126" x2="250.0001" y2="250.00015" stroke="red" />
<line x1="250.0001" y1="250.00015" x2="230.84895" y2="266.0698" stroke="red" />
<line x1="230.84895" y1="266.0698" x2="228.67006" y2="290.97467" stroke="red" />
<line x1="228.67006" y1="290.97467" x2="244.73979" y2="310.12576" stroke="red" />
<line x1="244.73979" y1="310.12576" x2="269.64465" y2="312.30475" stroke="red" />
<line x1="269.64465" y1="312.30475" x2="288.79578" y2="296.23508" stroke="red" />
<line x1="288.79578" y1="296.23508" x2="290.97464" y2="271.3302" stroke="red" />
<line x1="290.97464" y1="271.3302" x2="274.90503" y2="252.17902" stroke="red" />
<line x1="274.90503" y1="252.17902" x2="250.00017" y2="250.00008" stroke="red" />
<line x1="250.00017" y1="250.00008" x2="228.34958" y2="262.50015" stroke="red" />
<line x1="228.34958" y1="262.50015" x2="221.87904" y2="286.6483" stroke="red" />
<line x1="221.87904" y1="286.6483" x2="234.37904" y2="308.29892" stroke="red" />
<line x1="234.37904" y1="308.29892" x2="258.5272" y2="314.76935" stroke="red" />
<line x1="258.5272" y1="314.76935" x2="280.17786" y2="302.2694" stroke="red" />
<line x1="280.17786" y1="302.2694" x2="286.64835" y2="278.12128" stroke="red" />
<line x1="286.64835" y1="278.12128" x2="274.14832" y2="256.47064" stroke="red" />
<line x1="274.14832" y1="256.47064" x2="250.0002" y2="250.00006" stroke="red" />
<line x1="250.0002" y1="250.00006" x2="226.50789" y2="258.5506" stroke="red" />
<line x1="226.50789" y1="258.5506" x2="215.9425" y2="281.2083" stroke="red" />
<line x1="215.9425" y1="281.2083" x2="224.49295" y2="304.70065" stroke="red" />
<line x1="224.49295" y1="304.70065" x2="247.15063" y2="315.2661" stroke="red" />
<line x1="247.15063" y1="315.2661" x2="270.64294" y2="306.71558" stroke="red" />
<line x1="270.64294" y1="306.71558" x2="281.20847" y2="284.05792" stroke="red" />
<line x1="281.20847" y1="284.05792" x2="272.658" y2="260.5656" stroke="red" />
<line x1="272.658" y1="260.5656" x2="250.00027" y2="250.00018" stroke="red" />
<line x1="250.00027" y1="250.00018" x2="225.38008" y2="254.34135" stroke="red" />
<line x1="225.38008" y1="254.34135" x2="211.04068" y2="274.82016" stroke="red" />
<line x1="211.04068" y1="274.82016" x2="215.38177" y2="299.44037" stroke="red" />
<line x1="215.38177" y1="299.44037" x2="235.86053" y2="313.77982" stroke="red" />
<line x1="235.86053" y1="313.77982" x2="260.48074" y2="309.4386" stroke="red" />
<line x1="260.48074" y1="309.4386" x2="274.8201" y2="288.95978" stroke="red" />
<line x1="274.8201" y1="288.95978" x2="270.47897" y2="264.33957" stroke="red" />
<line x1="270.47897" y1="264.33957" x2="250.00018" y2="250.00014" stroke="red" />
<line x1="250.00018" y1="250.00014" x2="225.00018" y2="250.00005" stroke="red" />
<line x1="225.00018" y1="250.00005" x2="207.3225" y2="267.6777" stroke="red" />
<line x1="207.3225" y1="267.6777" x2="207.32251" y2="292.6777" stroke="red" />
<line x1="207.32251" y1="292.6777" x2="225.00009" y2="310.35547" stroke="red" />
<line x1="225.00009" y1="310.35547" x2="250.00009" y2="310.35553" stroke="red" />
<line x1="250.00009" y1="310.35553" x2="267.67776" y2="292.67786" stroke="red" />
<line x1="267.67776" y1="292.67786" x2="267.6777" y2="267.67786" stroke="red" />
<line x1="267.6777" y1="267.67786" x2="250.00009" y2="250.00012" stroke="red" />
<line x1="250.00009" y1="250.00012" x2="225.37988" y2="245.65897" stroke="red" />
<line x1="225.37988" y1="245.65897" x2="204.90103" y2="259.9983" stroke="red" />
<line x1="204.90103" y1="259.9983" x2="200.5598" y2="284.61847" stroke="red" />
<line x1="200.5598" y1="284.61847" x2="214.89923" y2="305.09726" stroke="red" />
<line x1="214.89923" y1="305.09726" x2="239.51941" y2="309.43857" stroke="red" />
<line x1="239.51941" y1="309.43857" x2="259.99823" y2="295.0992" stroke="red" />
<line x1="259.99823" y1="295.0992" x2="264.33945" y2="270.479" stroke="red" />
<line x1="264.33945" y1="270.479" x2="249.99998" y2="250.00023" stroke="red" />
<line x1="249.99998" y1="250.00023" x2="226.50768" y2="241.44972" stroke="red" />
<line x1="226.50768" y1="241.44972" x2="203.85" y2="252.01523" stroke="red" />
<line x1="203.85" y1="252.01523" x2="195.29942" y2="275.5075" stroke="red" />
<line x1="195.29942" y1="275.5075" x2="205.86485" y2="298.16522" stroke="red" />
<line x1="205.86485" y1="298.16522" x2="229.35718" y2="306.7157" stroke="red" />
<line x1="229.35718" y1="306.7157" x2="252.01492" y2="296.15033" stroke="red" />
<line x1="252.01492" y1="296.15033" x2="260.5655" y2="272.65802" stroke="red" />
<line x1="260.5655" y1="272.65802" x2="250.00003" y2="250.00032" stroke="red" />
<line x1="250.00003" y1="250.00032" x2="228.34943" y2="237.50027" stroke="red" />
<line x1="228.34943" y1="237.50027" x2="204.20128" y2="243.97075" stroke="red" />
<line x1="204.20128" y1="243.97075" x2="191.70132" y2="265.6214" stroke="red" />
<line x1="191.70132" y1="265.6214" x2="198.17172" y2="289.76956" stroke="red" />
<line x1="198.17172" y1="289.76956" x2="219.82234" y2="302.2696" stroke="red" />
<line x1="219.82234" y1="302.2696" x2="243.97049" y2="295.7991" stroke="red" />
<line x1="243.97049" y1="295.7991" x2="256.47058" y2="274.14853" stroke="red" />
<line x1="256.47058" y1="274.14853" x2="250.00015" y2="250.00037" stroke="red" />
<line x1="250.00015" y1="250.00037" x2="230.84912" y2="233.93059" stroke="red" />
<line x1="230.84912" y1="233.93059" x2="205.94424" y2="236.10942" stroke="red" />
<line x1="205.94424" y1="236.10942" x2="189.87454" y2="255.26053" stroke="red" />
<line x1="189.87454" y1="255.26053" x2="192.05348" y2="280.1654" stroke="red" />
<line x1="192.05348" y1="280.1654" x2="211.20467" y2="296.23502" stroke="red" />
<line x1="211.20467" y1="296.23502" x2="236.10953" y2="294.05597" stroke="red" />
<line x1="236.10953" y1="294.05597" x2="252.17934" y2="274.90497" stroke="red" />
<line x1="252.17934" y1="274.90497" x2="250.00055" y2="250.00009" stroke="red" />
<line x1="250.00055" y1="250.00009" x2="233.93085" y2="230.849" stroke="red" />
<line x1="233.93085" y1="230.849" x2="209.02597" y2="228.67018" stroke="red" />
<line x1="209.02597" y1="228.67018" x2="189.87494" y2="244.73997" stroke="red" />
<line x1="189.87494" y1="244.73997" x2="187.69585" y2="269.64484" stroke="red" />
<line x1="187.69585" y1="269.64484" x2="203.76543" y2="288.79605" stroke="red" />
<line x1="203.76543" y1="288.79605" x2="228.67029" y2="290.97504" stroke="red" />
<line x1="228.67029" y1="290.97504" x2="247.82141" y2="274.90536" stroke="red" />
<line x1="247.82141" y1="274.90536" x2="250.00027" y2="250.00049" stroke="red" />
<line x1="250.00027" y1="250.00049" x2="237.50014" y2="228.34993" stroke="red" />
<line x1="237.50014" y1="228.34993" x2="213.35204" y2="221.87929" stroke="red" />
<line x1="213.35204" y1="221.87929" x2="191.70134" y2="234.3792" stroke="red" />
<line x1="191.70134" y1="234.3792" x2="185.2308" y2="258.5273" stroke="red" />
<line x1="185.2308" y1="258.5273" x2="197.7308" y2="280.17795" stroke="red" />
<line x1="197.7308" y1="280.17795" x2="221.87897" y2="286.64838" stroke="red" />
<line x1="221.87897" y1="286.64838" x2="243.52954" y2="274.1483" stroke="red" />
<line x1="243.52954" y1="274.1483" x2="250.00023" y2="250.0002" stroke="red" />
<line x1="250.00023" y1="250.0002" x2="241.44981" y2="226.50786" stroke="red" />
<line x1="241.44981" y1="226.50786" x2="218.79213" y2="215.94237" stroke="red" />
<line x1="218.79213" y1="215.94237" x2="195.29982" y2="224.49289" stroke="red" />
<line x1="195.29982" y1="224.49289" x2="184.73444" y2="247.15062" stroke="red" />
<line x1="184.73444" y1="247.15062" x2="193.28506" y2="270.64288" stroke="red" />
<line x1="193.28506" y1="270.64288" x2="215.94267" y2="281.20853" stroke="red" />
<line x1="215.94267" y1="281.20853" x2="239.43503" y2="272.65814" stroke="red" />
<line x1="239.43503" y1="272.65814" x2="250.00055" y2="250.00049" stroke="red" />
<line x1="250.00055" y1="250.00049" x2="245.6593" y2="225.38031" stroke="red" />
<line x1="245.6593" y1="225.38031" x2="225.18044" y2="211.04099" stroke="red" />
<line x1="225.18044" y1="211.04099" x2="200.56027" y2="215.38235" stroke="red" />
<line x1="200.56027" y1="215.38235" x2="186.22072" y2="235.86105" stroke="red" />
<line x1="186.22072" y1="235.86105" x2="190.56181" y2="260.48126" stroke="red" />
<line x1="190.56181" y1="260.48126" x2="211.04059" y2="274.8207" stroke="red" />
<line x1="211.04059" y1="274.8207" x2="235.66078" y2="270.4795" stroke="red" />
<line x1="235.66078" y1="270.4795" x2="250.00015" y2="250.00066" stroke="red" />
<line x1="250.00015" y1="250.00066" x2="250.00035" y2="225.00066" stroke="red" />
<line x1="250.00035" y1="225.00066" x2="232.32278" y2="207.32289" stroke="red" />
<line x1="232.32278" y1="207.32289" x2="207.32278" y2="207.3228" stroke="red" />
<line x1="207.32278" y1="207.3228" x2="189.6451" y2="225.00044" stroke="red" />
<line x1="189.6451" y1="225.00044" x2="189.64513" y2="250.00044" stroke="red" />
<line x1="189.64513" y1="250.00044" x2="207.32285" y2="267.67804" stroke="red" />
<line x1="207.32285" y1="267.67804" x2="232.32285" y2="267.6779" stroke="red" />
<line x1="232.32285" y1="267.6779" x2="250.00064" y2="250.00035" stroke="red" />
<line x1="250.00064" y1="250.00035" x2="254.3419" y2="225.38017" stroke="red" />
<line x1="254.3419" y1="225.38017" x2="240.0025" y2="204.90137" stroke="red" />
<line x1="240.0025" y1="204.90137" x2="215.3823" y2="200.56021" stroke="red" />
<line x1="215.3823" y1="200.56021" x2="194.90355" y2="214.8997" stroke="red" />
<line x1="194.90355" y1="214.8997" x2="190.56213" y2="239.51987" stroke="red" />
<line x1="190.56213" y1="239.51987" x2="204.90141" y2="259.99875" stroke="red" />
<line x1="204.90141" y1="259.99875" x2="229.52159" y2="264.34006" stroke="red" />
<line x1="229.52159" y1="264.34006" x2="250.00043" y2="250.00069" stroke="red" />
<line x1="250.00043" y1="250.00069" x2="258.55087" y2="226.50835" stroke="red" />
<line x1="258.55087" y1="226.50835" x2="247.98529" y2="203.85071" stroke="red" />
<line x1="247.98529" y1="203.85071" x2="224.49304" y2="195.30002" stroke="red" />
<line x1="224.49304" y1="195.30002" x2="201.8353" y2="205.86536" stroke="red" />
<line x1="201.8353" y1="205.86536" x2="193.28471" y2="229.35764" stroke="red" />
<line x1="193.28471" y1="229.35764" x2="203.85014" y2="252.01534" stroke="red" />
<line x1="203.85014" y1="252.01534" x2="227.34247" y2="260.5658" stroke="red" />
<line x1="227.34247" y1="260.5658" x2="250.00012" y2="250.00026" stroke="red" />
<line x1="250.00012" y1="250.00026" x2="262.50027" y2="228.3497" stroke="red" />
<line x1="262.50027" y1="228.3497" x2="256.0299" y2="204.20152" stroke="red" />
<line x1="256.0299" y1="204.20152" x2="234.3793" y2="191.70148" stroke="red" />
<line x1="234.3793" y1="191.70148" x2="210.23116" y2="198.17195" stroke="red" />
<line x1="210.23116" y1="198.17195" x2="197.7312" y2="219.82262" stroke="red" />
<line x1="197.7312" y1="219.82262" x2="204.20178" y2="243.97073" stroke="red" />
<line x1="204.20178" y1="243.97073" x2="225.85231" y2="256.47092" stroke="red" />
<line x1="225.85231" y1="256.47092" x2="250.0005" y2="250.0006" stroke="red" />
<line x1="250.0005" y1="250.0006" x2="266.07022" y2="230.8495" stroke="red" />
<line x1="266.07022" y1="230.8495" x2="263.8913" y2="205.94464" stroke="red" />
<line x1="263.8913" y1="205.94464" x2="244.74014" y2="189.87502" stroke="red" />
<line x1="244.74014" y1="189.87502" x2="219.83528" y2="192.05405" stroke="red" />
<line x1="219.83528" y1="192.05405" x2="203.76544" y2="211.20503" stroke="red" />
<line x1="203.76544" y1="211.20503" x2="205.9442" y2="236.10991" stroke="red" />
<line x1="205.9442" y1="236.10991" x2="225.09526" y2="252.17966" stroke="red" />
<line x1="225.09526" y1="252.17966" x2="250.00012" y2="250.0008" stroke="red" />
<line x1="250.00012" y1="250.0008" x2="269.15115" y2="233.93103" stroke="red" />
<line x1="269.15115" y1="233.93103" x2="271.33026" y2="209.02618" stroke="red" />
<line x1="271.33026" y1="209.02618" x2="255.2607" y2="189.87497" stroke="red" />
<line x1="255.2607" y1="189.87497" x2="230.35583" y2="187.69597" stroke="red" />
<line x1="230.35583" y1="187.69597" x2="211.20468" y2="203.76561" stroke="red" />
<line x1="211.20468" y1="203.76561" x2="209.02579" y2="228.67047" stroke="red" />
<line x1="209.02579" y1="228.67047" x2="225.09552" y2="247.82155" stroke="red" />
<line x1="225.09552" y1="247.82155" x2="250.0004" y2="250.00034" stroke="red" />
<line x1="250.0004" y1="250.00034" x2="271.6511" y2="237.50046" stroke="red" />
<line x1="271.6511" y1="237.50046" x2="278.12164" y2="213.35234" stroke="red" />
<line x1="278.12164" y1="213.35234" x2="265.62167" y2="191.70169" stroke="red" />
<line x1="265.62167" y1="191.70169" x2="241.47353" y2="185.23123" stroke="red" />
<line x1="241.47353" y1="185.23123" x2="219.82294" y2="197.73131" stroke="red" />
<line x1="219.82294" y1="197.73131" x2="213.3526" y2="221.87949" stroke="red" />
<line x1="213.3526" y1="221.87949" x2="225.85243" y2="243.53021" stroke="red" />
<line x1="225.85243" y1="243.53021" x2="250.00055" y2="250.00082" stroke="red" />
<line x1="250.00055" y1="250.00082" x2="273.49286" y2="241.45032" stroke="red" />
<line x1="273.49286" y1="241.45032" x2="284.05826" y2="218.7926" stroke="red" />
<line x1="284.05826" y1="218.7926" x2="275.50766" y2="195.30032" stroke="red" />
<line x1="275.50766" y1="195.30032" x2="252.85005" y2="184.73466" stroke="red" />
<line x1="252.85005" y1="184.73466" x2="229.35768" y2="193.28502" stroke="red" />
<line x1="229.35768" y1="193.28502" x2="218.79213" y2="215.94267" stroke="red" />
<line x1="218.79213" y1="215.94267" x2="227.34259" y2="239.435" stroke="red" />
<line x1="227.34259" y1="239.435" x2="250.00029" y2="250.00046" stroke="red" />
<line x1="250.00029" y1="250.00046" x2="274.62045" y2="245.65912" stroke="red" />
<line x1="274.62045" y1="245.65912" x2="288.96002" y2="225.18044" stroke="red" />
<line x1="288.96002" y1="225.18044" x2="284.61896" y2="200.56021" stroke="red" />
<line x1="284.61896" y1="200.56021" x2="264.1402" y2="186.22073" stroke="red" />
<line x1="264.1402" y1="186.22073" x2="239.52" y2="190.5619" stroke="red" />
<line x1="239.52" y1="190.5619" x2="225.18062" y2="211.04073" stroke="red" />
<line x1="225.18062" y1="211.04073" x2="229.52191" y2="235.6609" stroke="red" />
<line x1="229.52191" y1="235.6609" x2="250.0008" y2="250.0002" stroke="red" />
<line x1="250.0008" y1="250.0002" x2="275.0008" y2="250.0003" stroke="red" />
<line x1="275.0008" y1="250.0003" x2="292.6785" y2="232.32268" stroke="red" />
<line x1="292.6785" y1="232.32268" x2="292.6785" y2="207.32268" stroke="red" />
<line x1="292.6785" y1="207.32268" x2="275.0008" y2="189.64505" stroke="red" />
<line x1="275.0008" y1="189.64505" x2="250.0008" y2="189.64516" stroke="red" />
<line x1="250.0008" y1="189.64516" x2="232.32297" y2="207.32268" stroke="red" />
<line x1="232.32297" y1="207.32268" x2="232.3228" y2="232.32268" stroke="red" />
<line x1="232.3228" y1="232.32268" x2="250.0004" y2="250.00043" stroke="red" />
</svg>